HIERARCHY
ROOT Hips
{
	OFFSET -14.64140 90.27770 -84.91600
	CHANNELS 6 Xposition Yposition Zposition Zrotation Xrotation Yrotation
	JOINT Spine
	{
		OFFSET 0.00000 13.20850 -1.60436
		CHANNELS 3 Zrotation Xrotation Yrotation
		JOINT Spine1
		{
			OFFSET 0.00000 8.61716 0.00000
			CHANNELS 3 Zrotation Xrotation Yrotation
			JOINT Spine2
			{
				OFFSET 0.00000 8.61717 0.00000
				CHANNELS 3 Zrotation Xrotation Yrotation
				JOINT Spine3
				{
					OFFSET 0.00000 8.61717 0.00000
					CHANNELS 3 Zrotation Xrotation Yrotation
					JOINT Neck
					{
						OFFSET 0.00000 11.07920 1.10792
						CHANNELS 3 Zrotation Xrotation Yrotation
						JOINT Neck1
						{
							OFFSET 0.00000 7.08032 0.00000
							CHANNELS 3 Zrotation Xrotation Yrotation
							JOINT Head
							{
								OFFSET 0.00000 7.08031 0.00000
								CHANNELS 3 Zrotation Xrotation Yrotation
								End site
								{
									OFFSET 0.00000 0.00000 0.00000
								}
							}
						}
					}
					JOINT RightShoulder
					{
						OFFSET -0.01000 7.91373 5.19711
						CHANNELS 3 Zrotation Xrotation Yrotation
						JOINT RightArm
						{
							OFFSET -18.41580 0.00000 0.00000
							CHANNELS 3 Zrotation Xrotation Yrotation
							JOINT RightForeArm
							{
								OFFSET -29.11090 0.00000 0.00000
								CHANNELS 3 Zrotation Xrotation Yrotation
								JOINT RightHand
								{
									OFFSET -24.65040 0.00000 0.00000
									CHANNELS 3 Zrotation Xrotation Yrotation
									JOINT RightHandThumb1
									{
										OFFSET -5.35114 -0.85590 3.97906
										CHANNELS 3 Zrotation Xrotation Yrotation
										JOINT RightHandThumb2
										{
											OFFSET -4.52789 0.00000 0.00000
											CHANNELS 3 Zrotation Xrotation Yrotation
											JOINT RightHandThumb3
											{
												OFFSET -2.46976 0.00000 0.00000
												CHANNELS 3 Zrotation Xrotation Yrotation
												End site
												{
													OFFSET 0.00000 0.00000 0.00000
												}
											}
										}
									}
									JOINT RightHandIndex1
									{
										OFFSET -14.26970 0.00000 2.88139
										CHANNELS 3 Zrotation Xrotation Yrotation
										JOINT RightHandIndex2
										{
											OFFSET -5.48836 0.00000 0.00000
											CHANNELS 3 Zrotation Xrotation Yrotation
											JOINT RightHandIndex3
											{
												OFFSET -3.01859 0.00000 0.00000
												CHANNELS 3 Zrotation Xrotation Yrotation
												End site
												{
													OFFSET 0.00000 0.00000 0.00000
												}
											}
										}
									}
									JOINT RightHandMiddle1
									{
										OFFSET -14.26970 0.00000 -0.09147
										CHANNELS 3 Zrotation Xrotation Yrotation
										JOINT RightHandMiddle2
										{
											OFFSET -6.17441 0.00000 0.00000
											CHANNELS 3 Zrotation Xrotation Yrotation
											JOINT RightHandMiddle3
											{
												OFFSET -3.56743 0.00000 0.00000
												CHANNELS 3 Zrotation Xrotation Yrotation
												End site
												{
													OFFSET 0.00000 0.00000 0.00000
												}
											}
										}
									}
									JOINT RightHandRing1
									{
										OFFSET -12.69180 0.00000 -3.06433
										CHANNELS 3 Zrotation Xrotation Yrotation
										JOINT RightHandRing2
										{
											OFFSET -5.62556 0.00000 0.00000
											CHANNELS 3 Zrotation Xrotation Yrotation
											JOINT RightHandRing3
											{
												OFFSET -3.56744 0.00000 0.00000
												CHANNELS 3 Zrotation Xrotation Yrotation
												End site
												{
													OFFSET 0.00000 0.00000 0.00000
												}
											}
										}
									}
									JOINT RightHandPinky1
									{
										OFFSET -11.11390 0.00000 -6.03719
										CHANNELS 3 Zrotation Xrotation Yrotation
										JOINT RightHandPinky2
										{
											OFFSET -4.52789 0.00000 0.00000
											CHANNELS 3 Zrotation Xrotation Yrotation
											JOINT RightHandPinky3
											{
												OFFSET -2.46976 0.00000 0.00000
												CHANNELS 3 Zrotation Xrotation Yrotation
												End site
												{
													OFFSET 0.00000 0.00000 0.00000
												}
											}
										}
									}
								}
							}
						}
					}
					JOINT LeftShoulder
					{
						OFFSET 0.01000 7.91373 5.19711
						CHANNELS 3 Zrotation Xrotation Yrotation
						JOINT LeftArm
						{
							OFFSET 18.41580 0.00000 0.00000
							CHANNELS 3 Zrotation Xrotation Yrotation
							JOINT LeftForeArm
							{
								OFFSET 29.11090 0.00000 0.00000
								CHANNELS 3 Zrotation Xrotation Yrotation
								JOINT LeftHand
								{
									OFFSET 24.65040 0.00000 0.00000
									CHANNELS 3 Zrotation Xrotation Yrotation
									JOINT LeftHandThumb1
									{
										OFFSET 5.35114 -0.85590 3.97906
										CHANNELS 3 Zrotation Xrotation Yrotation
										JOINT LeftHandThumb2
										{
											OFFSET 4.52789 0.00000 0.00000
											CHANNELS 3 Zrotation Xrotation Yrotation
											JOINT LeftHandThumb3
											{
												OFFSET 2.46977 0.00000 0.00000
												CHANNELS 3 Zrotation Xrotation Yrotation
												End site
												{
													OFFSET 0.00000 0.00000 0.00000
												}
											}
										}
									}
									JOINT LeftHandIndex1
									{
										OFFSET 14.26970 0.00000 2.88139
										CHANNELS 3 Zrotation Xrotation Yrotation
										JOINT LeftHandIndex2
										{
											OFFSET 5.48836 0.00000 0.00000
											CHANNELS 3 Zrotation Xrotation Yrotation
											JOINT LeftHandIndex3
											{
												OFFSET 3.01859 0.00000 0.00000
												CHANNELS 3 Zrotation Xrotation Yrotation
												End site
												{
													OFFSET 0.00000 0.00000 0.00000
												}
											}
										}
									}
									JOINT LeftHandMiddle1
									{
										OFFSET 14.26970 0.00000 -0.09147
										CHANNELS 3 Zrotation Xrotation Yrotation
										JOINT LeftHandMiddle2
										{
											OFFSET 6.17440 0.00000 0.00000
											CHANNELS 3 Zrotation Xrotation Yrotation
											JOINT LeftHandMiddle3
											{
												OFFSET 3.56744 0.00000 0.00000
												CHANNELS 3 Zrotation Xrotation Yrotation
												End site
												{
													OFFSET 0.00000 0.00000 0.00000
												}
											}
										}
									}
									JOINT LeftHandRing1
									{
										OFFSET 12.69180 0.00000 -3.06433
										CHANNELS 3 Zrotation Xrotation Yrotation
										JOINT LeftHandRing2
										{
											OFFSET 5.62556 0.00000 0.00000
											CHANNELS 3 Zrotation Xrotation Yrotation
											JOINT LeftHandRing3
											{
												OFFSET 3.56744 0.00000 0.00000
												CHANNELS 3 Zrotation Xrotation Yrotation
												End site
												{
													OFFSET 0.00000 0.00000 0.00000
												}
											}
										}
									}
									JOINT LeftHandPinky1
									{
										OFFSET 11.11390 0.00000 -6.03719
										CHANNELS 3 Zrotation Xrotation Yrotation
										JOINT LeftHandPinky2
										{
											OFFSET 4.52789 0.00000 0.00000
											CHANNELS 3 Zrotation Xrotation Yrotation
											JOINT LeftHandPinky3
											{
												OFFSET 2.46976 0.00000 0.00000
												CHANNELS 3 Zrotation Xrotation Yrotation
												End site
												{
													OFFSET 0.00000 0.00000 0.00000
												}
											}
										}
									}
								}
							}
						}
					}
					JOINT pCube4
					{
						OFFSET 0.00000 10.91090 1.10792
						CHANNELS 3 Zrotation Xrotation Yrotation
						End site
						{
							OFFSET 0.00000 0.00000 0.00000
						}
					}
				}
			}
		}
	}
	JOINT RightUpLeg
	{
		OFFSET -9.98441 0.00000 0.00000
		CHANNELS 3 Zrotation Xrotation Yrotation
		JOINT RightLeg
		{
			OFFSET 0.00000 -42.11790 0.00000
			CHANNELS 3 Zrotation Xrotation Yrotation
			JOINT RightFoot
			{
				OFFSET 0.00000 -45.00020 -0.00001
				CHANNELS 3 Zrotation Xrotation Yrotation
				JOINT RightForeFoot
				{
					OFFSET 0.00000 -3.74820 0.00000
					CHANNELS 3 Zrotation Xrotation Yrotation
					JOINT RightToeBase
					{
						OFFSET 0.00000 0.06325 14.43120
						CHANNELS 3 Zrotation Xrotation Yrotation
						End site
						{
							OFFSET 0.00000 0.00000 0.00000
						}
					}
				}
			}
		}
	}
	JOINT LeftUpLeg
	{
		OFFSET 9.98441 0.00000 0.00000
		CHANNELS 3 Zrotation Xrotation Yrotation
		JOINT LeftLeg
		{
			OFFSET 0.00000 -42.11800 0.00000
			CHANNELS 3 Zrotation Xrotation Yrotation
			JOINT LeftFoot
			{
				OFFSET 0.00000 -45.00070 0.00000
				CHANNELS 3 Zrotation Xrotation Yrotation
				JOINT LeftForeFoot
				{
					OFFSET 0.00000 -3.74824 0.00000
					CHANNELS 3 Zrotation Xrotation Yrotation
					JOINT LeftToeBase
					{
						OFFSET 0.00000 0.06325 14.43110
						CHANNELS 3 Zrotation Xrotation Yrotation
						End site
						{
							OFFSET 0.00000 0.00000 0.00000
						}
					}
				}
			}
		}
	}
}
MOTION
Frames: 4
Frame Time: 0.050000
0.017798913982954294 0.03153423054593162 -0.017912771980612734 0.04063865466632256 0.046602247802429324 -0.03225122681735814 4.537056565480721 3.170729754259272 -2.0866506154287787 -0.782781316771458 3.552940710624974 0.39088241679536984 -0.6821811853166053 -1.0825226099895562 -0.1357755750260066 -0.347234888822917 -0.23334119974152998 -0.4219253195939563 -0.1467154661074518 12.2942564970178 -0.9444517491089741 0.3656314126412668 -0.4623327318031361 -1.4288192594581481 0.7112650698692763 -16.81055812129255 -0.16253231847812935 -9.344845362624763 3.165999893388297 -18.44940540570037 77.45325463020832 5.393461959280957 -0.17172913919177202 -17.62315712109672 -4.472804533008618 59.25759213551156 22.355507317205202 -0.25351361945629136 -7.203828453558391 4.484935467106253 -0.171279614503832 -1.5839116797905175 -0.044453768767193286 -0.01066453009533551 -56.24465787911254 -0.01406423618611156 -0.029631489279751067 -56.24534501387737 -38.81097967270922 -0.03850447210303418 -0.023434798426019095 0.002995700350899215 0.0051000650057405035 -0.005467486790154527 0.002235343035581492 0.007715616288681168 -0.033423534814847417 -36.71627275417353 -0.03099802107640276 -0.029282537068621797 0.01424416545360799 0.0052292884903613005 0.02224544442185963 0.023041984466005493 -0.019674111829287733 -0.024159160157835376 -19.779923863316455 -0.033981612071110154 0.018448273369325904 -0.026893574782505123 -0.0075314202142075706 0.036976418068656286 -0.005510552273490839 -0.019280080270283082 0.008170850068143061 24.071545541651574 -0.00047569523386472993 0.0017575525332541762 28.900004515742108 -0.004714903672457072 0.03224325463624685 28.884892452791227 0.008622109205414988 -0.005557889939329263 10.17648967349483 2.382244970780039 15.287306850807399 -72.67629347575888 19.87978967382492 -13.85485984126731 -40.67221584973009 6.731436758415445 -90.56170704821152 -21.70345633355626 -9.766500141245606 6.551547504562208 -0.4837781301231885 0.04036709578689279 -8.135521828851012 0.014077611744471233 -0.005529912180755615 44.544454628571756 -0.012894430176558148 0.007150723127544035 44.55374707028358 12.436022710646661 -0.038601622681429415 -0.03320029518712021 0.02956522324647457 -0.03694029376503355 0.010480809781421583 0.04612664773543196 0.03954660694424076 0.03974031003919198 11.092062393903545 -0.030123899794920642 4.111549455415924e-05 -0.01748585624840894 -0.014708580218636764 0.015228255304614108 0.0008530491877707796 -0.0028082161745931157 0.017431766312556506 4.820255770998152 -0.0012175850772690904 -0.04512043819809622 -0.001949128759659408 -0.021272199686880107 -0.0006669160351465271 0.0073872672933365455 -0.003676093822968837 0.016390285203412364 -5.595868761019446 -0.0040357204471155915 -0.03188241159343142 -6.702956473526813 0.0006534642103574153 0.009817752947727526 -6.763398956349555 0.016522299003988484 -0.019712715376717996 0.04156163040409856 -0.024112367629775977 -0.009281511649072462 8.063546138639442 3.4674058731115514 -19.215770763464917 -0.03329772399609534 10.395357446768255 0.01573957486417969 -5.6168215021175625 -15.651450592479343 3.220811472807768 -0.004345418108709637 -0.020725822801293328 0.028232230604779012 0.027262231899840037 4.7430829762235405 0.012915581068808222 12.491185706550402 -8.257297354443983 6.918637649633911 0.027517770703019872 46.35339478328621 -0.03845102874092615 -4.31399992242999 -14.74902680893126 -3.8079459603088637 0.0015542374018012348 -0.006728057305849073 0.047655627818713214 -0.04983261369731296 -10.756542623967416 0.016300820214112305 
-0.016597303091801362 0.023991805752184625 0.029754401802954286 -0.007655488627018487 0.013109908850308313 -0.04895523719368067 4.445575313122818 3.093098874336397 -2.0499686279376683 -0.7612027022196998 3.5617987467032584 0.3346305957205144 -0.6955220506243921 -1.0913469966628806 -0.038492363196217634 -0.4336964233198916 -0.308563042540793 -0.4768937096059289 -0.11292331281346978 12.206189561084592 -1.0105457786756105 0.37534406972551865 -0.4639789321892823 -1.62917275933489 0.7105967335248988 -16.803279355645667 -0.16309663124852206 -9.324647294909482 3.157377395692968 -18.433058023774535 77.79459778198817 5.181205163197703 -0.06092873181057518 -18.026503210876857 -4.722858193678843 59.68094419393453 22.550984830289675 -0.29289166951862383 -7.4142615507168905 4.494425783464399 -0.11594060600875604 -1.5671453223669778 0.02407639553960724 -0.006562577556648458 -56.21012680350034 -0.03371050857742029 0.0020984738560810468 -56.209062025373974 -38.72141842662022 -0.04432955424472228 -0.016053262056841565 -0.04831671439084291 -0.03476284648279454 -0.01454041295332541 0.010766266404873208 -0.011353897298237041 -0.008756555003897368 -36.73347058812299 0.0334914761304577 -0.04843063021323015 0.008628026889601 0.04447975491462864 -0.03625843248328544 0.0055622612263887825 -0.0035785514078792834 0.015094777578392529 -19.76561354376502 0.010430122410681242 -0.042871820842968054 -0.029921418498664976 -0.025084713652388454 0.003489937871157337 -0.035865481659423146 -0.014020523056082175 0.03374046934735814 24.063634388372115 0.02874124203053357 0.04256460177740814 28.846054028853832 0.028639556562305848 -0.02780740146028644 28.913756113678797 0.047332831491542285 0.03331486042893317 9.949396528046261 2.3852961482706414 15.300529365701768 -73.58791706994276 19.588663004309556 -12.61085621976728 -43.77371478350231 6.813073525037011 -90.98962422826179 -21.684767611513436 -9.869882337095765 6.638422662828864 -0.501577544803453 0.07063955726507959 -8.078763668568968 0.023084150417914034 -0.04319299816518583 44.544360815147435 -0.02160338174278938 0.014337843247621062 44.55948279863049 12.49830441651736 -0.0005054276625799534 -0.016501112407357764 0.0077408103227212515 0.0061000887346706 0.006416837908671664 -0.011838584722646558 0.0007552829976046833 -0.00039976323148617325 11.097716843545046 0.016271617390994805 0.03210224245752148 0.011777949626403847 0.025788061854469673 0.008250122723048347 -0.01407246520527284 0.003975088412744476 -0.008815236242918918 4.8010189917572195 -0.03917271857314663 -0.045406865083321486 -0.02743318056462523 -0.022596954707474016 0.011350466121987262 -0.010782577698741766 0.0026748347727238555 0.02105495628938516 -5.551988075661456 -0.03612804569813204 0.032942992971572736 -6.728632990888376 -0.03480049091390901 0.03820257363118333 -6.749835598820202 0.009843038406919441 -0.01731041620123301 -0.0017933140205167466 0.027206345236307602 0.043196052278126076 8.029625469939079 3.5136233491607647 -19.21150900642169 -0.006753652717913504 10.358533771364419 -0.03431769479041094 -5.660499292628527 -15.62595575258436 3.2172337755603886 0.02099726590011987 -0.012907372949789159 0.02104333125749701 -0.03603768623189347 4.6742375185974705 -0.037713413583379825 12.426086578539438 -8.19401014630746 6.839031173365512 -0.025143813389450362 46.34337226742948 0.016899569814889357 -4.280042295115886 -14.760007702963597 -3.809410929309917 0.015014690766492988 0.00737438076852658 -0.02250657100330921 0.03075868935145897 -10.771672807253482 -0.04717682546613175 
0.04684829301237059 -0.029551116797392536 -0.03912010874541483 0.0069999451392444585 0.013616348994416081 -0.03437235336076721 4.328037721794586 3.0489100259046062 -2.0859333443217465 -0.7548750407620587 3.4804343429736018 0.3434792526255138 -0.7098248751386717 -1.116151358243604 0.006022790665410272 -0.40110564181845126 -0.31835781883686753 -0.4227370419292752 -0.09742610991482967 12.153287721363306 -0.9482186509221172 0.37667861247153617 -0.48765929651434364 -1.5543197659504102 0.7567672950356993 -16.87118007660144 -0.1333418494166297 -9.167065472152608 3.164745466757751 -18.34585921202417 78.33861163501469 4.191586674444519 0.17549735104848657 -16.7767913095321 -3.9173717494375464 58.368029465794045 22.111555437310088 -0.23269198211938957 -6.99557670653835 4.568047103424905 -0.13018533484767086 -1.6213593516800349 0.023720278243511077 0.03646250862071559 -56.194523730257856 0.0011112120674054058 -0.04951125044248487 -56.230075008510816 -38.77492816473049 -0.04634103339562885 0.0017657468684897542 0.010645815086100407 0.025133358696778112 -0.021361561998706098 -0.04189499564298838 -0.0289146668709986 -0.048960728913737234 -36.70378989872891 -0.02140339910491998 -0.0012993902771265744 -0.034571391340766755 -0.007226871517585477 -0.0315524773569026 0.019279826504904073 0.00703845633773479 0.009162783185691671 -19.777737512124975 -0.03987271742143711 -0.04540242642700653 0.037035267055199335 0.022961394865482904 -0.002144054084268577 -0.027854468259324236 -0.005016394628478127 -0.022648510973878513 24.09979025855353 -0.015294412999479147 0.015047325529709917 28.8682905969286 0.011358106308365307 0.04271517578688257 28.904985353586348 0.02681773259100282 0.04751648113298513 9.775377820983197 2.3265975390751934 15.26833565944785 -74.21269950455353 18.844169143474787 -12.071917065825703 -46.45621986266453 6.699910675188712 -91.41436922748034 -21.259373057607974 -9.563772065392655 6.3874931603191625 -0.44547378262944687 0.05119403962426839 -8.098543557975876 -0.02993046058275015 -0.04172999515415304 44.591627732942406 -0.018756095627962422 0.009511074864057327 44.60630739341701 12.447439674469901 -0.04330940533922271 -0.007726006636394909 0.006146827545108246 0.018751866755514532 -0.014621810910249358 -0.02274787759022036 -0.031412723479824066 -0.03126724241120919 11.118907151126258 -0.0055029399793799635 -0.02997873836622266 -0.011735372315255036 -0.020749887446185233 -0.033531282589931134 0.04817148141692812 0.04018788453343132 0.020521460019515533 4.757525532369473 0.04704549427212539 0.005838549546557281 -0.03110151923820621 0.04561282852740464 0.01723190169297795 0.01722120440847671 0.010907591883028983 0.03171076917914076 -5.603248253828105 0.0006303782982420516 0.036758717805670554 -6.738022392287648 -1.527439093545306e-05 0.04250912813766717 -6.736539234942211 -0.04785775419540144 0.03645445390676162 -0.04542704773434973 -0.015999781753948103 0.019184789610429704 8.084258391181905 3.481509533338699 -19.227547360485303 -0.01934138838487006 10.363835774731028 0.05472620096290082 -5.583059860712113 -15.675408544272221 3.152102799541596 -0.011687984420787419 0.045504078607608994 0.0015469861881353716 -0.029820806405054478 4.683562232793755 0.02907367126066961 12.492274774184663 -8.195534748551887 6.907319443817357 0.03967966981763451 46.38733604511326 0.0014740699909163001 -4.352633027215002 -14.762403266782789 -3.842550307526611 -0.02538314773342102 -0.048192461896910774 -0.03441844305047939 0.03977696292246323 -10.709273099654958 -0.021005504404077887 
-0.02206101204671114 -0.003848302332853366 0.025978859421786835 -0.01622867191825772 0.03640600652371613 0.03581136013483365 4.215649997317528 2.8827716638848373 -2.074538609398951 -0.7540285693066011 3.510471144327243 0.3694937623094926 -0.6765256631533689 -1.125102821458863 -0.08728090920085267 -0.47558416917217977 -0.35569550515971926 -0.4643036477285605 -0.17800281244910862 12.120001982082247 -0.8779797428352999 0.40058394090273125 -0.5131521337952656 -1.3527965271979716 0.650059880030248 -16.791163598948312 -0.192547731741822 -9.190834025190115 3.1574444529476526 -18.26219910072237 79.16956654573795 2.849196187880506 0.3142311596537164 -14.568905869692111 -2.0682606419908147 55.960363086494816 21.359542130898717 -0.2536258999950588 -6.2914476723814134 4.513930091266711 -0.16886446392212257 -1.6159090335256292 0.028845522709838024 0.017277727200318903 -56.266289351361586 -0.04417903716991411 0.009349063734031838 -56.27193129253662 -38.78829745184295 0.01835202907243869 0.04407984661013298 0.045338205502237335 0.04130257865856942 0.004601880663543061 0.029511330130137875 -0.0005462423245827317 -0.006727491855801529 -36.71719575022942 -0.01229402488559537 -0.030604086756659276 -0.015500635858954045 -0.01625904336647638 -0.04212378256396673 0.011964916541716933 -0.04480490935400574 -0.009654630336949799 -19.794813806452538 0.005925878614480185 -0.020572449576430393 0.002011293360046477 -0.037609077362875054 -0.015783956882991453 0.0004074133351389033 0.010767610826691412 0.04515685682501509 24.027691375953236 -0.0194856113123384 0.021897854809166277 28.88388396433097 0.029274592301665965 -0.0466702215650803 28.881906524049693 -0.02605464976190456 -0.0026653447795390805 9.881652007683362 2.318817467688056 15.15821977583592 -74.474646034212 17.943088210582165 -12.424852623981254 -47.485857991929166 6.033861367021448 -91.47824582397234 -20.391167651712504 -9.116733321753381 5.8265651721084115 -0.4693456893533022 0.11766253102747971 -8.169295234009281 0.01768949938363501 -0.01584319103588904 44.532238397645564 0.04632166337880209 0.03131385808843506 44.59180866010575 12.43320847265222 -0.040493096808089005 -0.03523371548742387 0.04054760907761799 0.006461419822773342 -0.021315839945489023 0.010180937080198519 0.037090542054562727 -0.03912855624163985 11.110023992016671 0.00918634055539182 -0.043703698642115804 0.04186382895674563 0.04305499077341555 -0.03460089300461241 -0.01997756780813389 -0.021037833155379805 -0.006635279870777589 4.758960120991503 -0.046600048229796937 -0.015335514770429952 -0.032211020007322226 0.0007409406589236644 -0.014024522667939575 -0.02490577276503052 0.01173479386706004 0.014090893129229377 -5.604395453886077 -0.008640591664232321 -0.014373694292970304 -6.706515758579933 0.0099472912910549 0.022157453005191795 -6.709558272954423 0.03260705882044941 0.045481305039429556 -0.010816161159255776 -0.04117051537059932 0.01133750133877817 8.033457077063645 3.53650544589006 -19.2267910578847 -0.013123174195414384 10.401382405383561 -0.006276064465822687 -5.6303067233344715 -15.669995863343981 3.236242253240762 0.004906005314522721 -0.015341456164985712 -0.006110425724530375 0.009551988176907441 4.657710455497847 -0.017363383436532532 12.465343855830211 -8.262891782596052 6.90218631849502 0.008020741142902145 46.337097698120246 -0.03933414933814121 -4.3368888688220375 -14.708040207099614 -3.8236404091568197 0.012064044451735895 0.006663430643586193 0.023418423763937837 0.03627006438123182 -10.784628664125352 0.036043290218173034 
